<svg xmlns="http://www.w3.org/2000/svg" xmlns:xlink="http://www.w3.org/1999/xlink" viewBox="0,0,256,256" width="1000px" height="1000px" fill-rule="nonzero"><g fill="none" fill-rule="nonzero" stroke="none" stroke-width="none" stroke-linecap="none" stroke-linejoin="none" stroke-miterlimit="10" stroke-dasharray="" stroke-dashoffset="0" font-family="none" font-weight="none" font-size="none" text-anchor="none" style="mix-blend-mode: normal"><g transform="scale(4,4)"><ellipse cx="32" cy="61" rx="19" ry="3" fill="#080000" stroke="none" stroke-width="1" stroke-linecap="butt" stroke-linejoin="miter" opacity="0.3"></ellipse><path d="M47.059,17.941l-1.889,1.889c-0.429,0.429 -0.466,1.124 -0.063,1.578c3.611,4.08 5.215,9.725 3.982,15.392c-1.63,7.488 -8.156,13.104 -15.8,13.654c-10.23,0.736 -18.789,-7.378 -18.789,-17.454c0,-8.242 8.357,-15.918 16.97,-24.09c0.337,-0.32 0.529,-0.76 0.529,-1.225c0.001,-1.149 0.001,-3.433 0.001,-5.126c0,-0.416 -0.497,-0.622 -0.795,-0.332c-1.297,1.266 -2.624,2.531 -3.927,3.766c-6.37,6.04 -12.899,12.229 -15.971,19.071c-1.142,2.547 -1.807,5.183 -1.807,7.936c0,7.31 3.504,13.817 8.921,17.929c4.434,3.366 10.15,5.128 16.274,4.413c9.244,-1.08 16.99,-7.917 19.164,-16.966c1.805,-7.512 -0.295,-15.042 -5.125,-20.414c-0.44,-0.488 -1.21,-0.486 -1.675,-0.021z" fill="#fd3c4f" stroke="none" stroke-width="1" stroke-linecap="butt" stroke-linejoin="miter"></path><circle cx="40" cy="13" r="3" fill="#fd3c4f" stroke="none" stroke-width="1" stroke-linecap="butt" stroke-linejoin="miter"></circle><path d="M14.5,33c0,-4.264 2.306,-8.842 7.256,-14.409c1.801,-2.025 1.645,-5.099 -0.312,-6.948c-4.234,4.273 -8.013,8.69 -10.137,13.421c-1.142,2.547 -1.807,5.183 -1.807,7.936c0,1.699 0.197,3.352 0.555,4.944c2.497,-0.28 4.445,-2.373 4.445,-4.944z" fill="#ffffff" stroke="none" stroke-width="1" stroke-linecap="butt" stroke-linejoin="miter" opacity="0.3"></path><path d="M48.997,37.209c-1.235,5.138 -4.89,9.529 -9.778,11.745c-2.341,1.061 -3.443,3.698 -2.669,6.086c8.411,-1.719 15.282,-8.227 17.309,-16.663c0.397,-1.652 0.595,-3.304 0.626,-4.935c-2.499,-0.318 -4.886,1.263 -5.488,3.767z" fill="#080000" stroke="none" stroke-width="1" stroke-linecap="butt" stroke-linejoin="miter" opacity="0.15"></path><path d="M13.315,26.837c1.027,-2.495 2.348,-4.549 3.668,-6.261" fill="none" stroke="#ffffff" stroke-width="3" stroke-linecap="round" stroke-linejoin="round"></path></g></g></svg>